<svg id="Layer_1" data-name="Layer 1" xmlns="http://www.w3.org/2000/svg" xmlns:xlink="http://www.w3.org/1999/xlink" viewBox="0 0 1021.08 1021.08"><defs><style>.cls-1{fill:url(#linear-gradient);}.cls-2{fill:url(#linear-gradient-2);}.cls-3{fill:url(#linear-gradient-3);}.cls-4{fill:url(#linear-gradient-4);}.cls-5{fill:url(#linear-gradient-5);}.cls-6{fill:url(#linear-gradient-6);}.cls-7{fill:url(#linear-gradient-7);}.cls-8{fill:url(#linear-gradient-8);}.cls-9{fill:url(#linear-gradient-9);}.cls-10{fill:url(#linear-gradient-10);}.cls-11{fill:url(#linear-gradient-11);}.cls-12{fill:url(#linear-gradient-12);}.cls-13{fill:url(#linear-gradient-13);}.cls-14{fill:url(#linear-gradient-14);}.cls-15{fill:url(#linear-gradient-15);}.cls-16{fill:url(#linear-gradient-16);}.cls-17{fill:url(#linear-gradient-17);}.cls-18{fill:url(#linear-gradient-18);}.cls-19{fill:url(#linear-gradient-19);}.cls-20{fill:url(#linear-gradient-20);}.cls-21{fill:url(#linear-gradient-21);}.cls-22{fill:url(#linear-gradient-22);}.cls-23{fill:url(#linear-gradient-23);}.cls-24{fill:url(#linear-gradient-24);}.cls-25{fill:url(#linear-gradient-25);}.cls-26{fill:url(#linear-gradient-26);}.cls-27{fill:url(#linear-gradient-27);}.cls-28{fill:url(#linear-gradient-28);}.cls-29{fill:url(#linear-gradient-29);}.cls-30{fill:url(#linear-gradient-30);}.cls-31{fill:url(#linear-gradient-31);}.cls-32{fill:url(#linear-gradient-32);}.cls-33{fill:url(#linear-gradient-33);}</style><linearGradient id="linear-gradient" x1="448.71" y1="201.72" x2="515.87" y2="201.72" gradientUnits="userSpaceOnUse"><stop offset="0" stop-color="lime"/><stop offset="0" stop-color="#00ff0e"/><stop offset="0" stop-color="lime"/><stop offset="0.61" stop-color="aqua"/></linearGradient><linearGradient id="linear-gradient-2" x1="529.54" y1="384.8" x2="596.7" y2="384.8" xlink:href="#linear-gradient"/><linearGradient id="linear-gradient-3" x1="563.12" y1="319.8" x2="630.28" y2="319.8" xlink:href="#linear-gradient"/><linearGradient id="linear-gradient-4" x1="563.12" y1="264.71" x2="630.28" y2="264.71" xlink:href="#linear-gradient"/><linearGradient id="linear-gradient-5" x1="264.75" y1="376.43" x2="331.91" y2="376.43" xlink:href="#linear-gradient"/><linearGradient id="linear-gradient-6" x1="455.58" y1="325.69" x2="522.74" y2="325.69" xlink:href="#linear-gradient"/><linearGradient id="linear-gradient-7" x1="321.46" y1="294.43" x2="388.62" y2="294.43" xlink:href="#linear-gradient"/><linearGradient id="linear-gradient-8" x1="241.2" y1="201.72" x2="308.36" y2="201.72" xlink:href="#linear-gradient"/><linearGradient id="linear-gradient-9" x1="455.58" y1="473.82" x2="522.74" y2="473.82" xlink:href="#linear-gradient"/><linearGradient id="linear-gradient-10" x1="341.46" y1="485.17" x2="408.62" y2="485.17" xlink:href="#linear-gradient"/><linearGradient id="linear-gradient-11" x1="264.75" y1="427.17" x2="331.91" y2="427.17" xlink:href="#linear-gradient"/><linearGradient id="linear-gradient-12" x1="605.03" y1="391.44" x2="672.2" y2="391.44" xlink:href="#linear-gradient"/><linearGradient id="linear-gradient-13" x1="455.58" y1="376.43" x2="522.74" y2="376.43" xlink:href="#linear-gradient"/><linearGradient id="linear-gradient-14" x1="638.61" y1="319.8" x2="705.78" y2="319.8" xlink:href="#linear-gradient"/><linearGradient id="linear-gradient-15" x1="717.27" y1="227.1" x2="784.43" y2="227.1" xlink:href="#linear-gradient"/><linearGradient id="linear-gradient-16" x1="591.19" y1="144.62" x2="658.35" y2="144.62" xlink:href="#linear-gradient"/><linearGradient id="linear-gradient-17" x1="341.46" y1="588.45" x2="408.62" y2="588.45" xlink:href="#linear-gradient"/><linearGradient id="linear-gradient-18" x1="717.27" y1="427.17" x2="784.43" y2="427.17" xlink:href="#linear-gradient"/><linearGradient id="linear-gradient-19" x1="717.27" y1="376.43" x2="784.43" y2="376.43" xlink:href="#linear-gradient"/><linearGradient id="linear-gradient-20" x1="724.43" y1="473.82" x2="791.59" y2="473.82" xlink:href="#linear-gradient"/><linearGradient id="linear-gradient-21" x1="783.76" y1="437.16" x2="850.92" y2="437.16" xlink:href="#linear-gradient"/><linearGradient id="linear-gradient-22" x1="415.13" y1="649.64" x2="482.29" y2="649.64" xlink:href="#linear-gradient"/><linearGradient id="linear-gradient-23" x1="532.27" y1="542.81" x2="717.27" y2="542.81" xlink:href="#linear-gradient"/><linearGradient id="linear-gradient-24" x1="879.97" y1="1398.08" x2="1617.63" y2="1398.08" xlink:href="#linear-gradient"/><linearGradient id="linear-gradient-25" x1="875.4" y1="1391.94" x2="1114.28" y2="1391.94" xlink:href="#linear-gradient"/><linearGradient id="linear-gradient-26" x1="877.61" y1="1440.74" x2="1106.65" y2="1440.74" xlink:href="#linear-gradient"/><linearGradient id="linear-gradient-27" x1="418.56" y1="573.43" x2="510.54" y2="573.43" xlink:href="#linear-gradient"/><linearGradient id="linear-gradient-28" x1="375.67" y1="396.96" x2="465.99" y2="396.96" xlink:href="#linear-gradient"/><linearGradient id="linear-gradient-29" x1="522.74" y1="595.91" x2="589.9" y2="595.91" xlink:href="#linear-gradient"/><linearGradient id="linear-gradient-30" x1="274.78" y1="536.81" x2="341.94" y2="536.81" xlink:href="#linear-gradient"/><linearGradient id="linear-gradient-31" x1="220.89" y1="480.71" x2="288.05" y2="480.71" xlink:href="#linear-gradient"/><linearGradient id="linear-gradient-32" x1="544.87" y1="465.73" x2="612.03" y2="465.73" xlink:href="#linear-gradient"/><linearGradient id="linear-gradient-33" x1="634.65" y1="456.99" x2="701.81" y2="456.99" xlink:href="#linear-gradient"/></defs><title>Atheneum Favicon</title><circle cx="510.54" cy="510.54" r="510.54"/><polygon class="cls-1" points="448.71 195.75 484.53 227.1 515.87 211.43 482.29 176.35 448.71 195.75"/><polygon class="cls-2" points="529.53 378.83 565.36 410.17 596.7 394.5 563.12 359.43 529.53 378.83"/><polygon class="cls-3" points="563.12 313.83 598.94 345.17 630.28 329.5 596.7 294.43 563.12 313.83"/><polygon class="cls-4" points="563.12 258.74 598.94 290.08 630.28 274.41 596.7 239.34 563.12 258.74"/><polygon class="cls-5" points="264.75 370.46 300.56 401.8 331.91 386.13 298.33 351.06 264.75 370.46"/><polygon class="cls-6" points="455.58 319.71 491.4 351.06 522.74 335.39 489.16 300.31 455.58 319.71"/><polygon class="cls-7" points="321.46 288.46 357.28 319.8 388.62 304.13 355.04 269.05 321.46 288.46"/><polygon class="cls-8" points="241.2 195.75 277.02 227.1 308.36 211.43 274.78 176.35 241.2 195.75"/><polygon class="cls-9" points="455.58 467.85 491.4 499.2 522.74 483.52 489.16 448.45 455.58 467.85"/><polygon class="cls-10" points="341.46 479.2 377.28 510.54 408.62 494.87 375.04 459.79 341.46 479.2"/><polygon class="cls-11" points="264.75 421.2 300.56 452.55 331.91 436.88 298.33 401.8 264.75 421.2"/><polygon class="cls-12" points="605.03 385.47 640.85 416.81 672.2 401.14 638.61 366.06 605.03 385.47"/><polygon class="cls-13" points="455.58 370.46 491.4 401.8 522.74 386.13 489.16 351.06 455.58 370.46"/><polygon class="cls-14" points="638.61 313.83 674.43 345.17 705.78 329.5 672.2 294.43 638.61 313.83"/><polygon class="cls-15" points="717.27 221.13 753.09 252.47 784.43 236.8 750.85 201.72 717.27 221.13"/><polygon class="cls-16" points="591.19 138.66 627.01 170 658.35 154.33 624.77 119.25 591.19 138.66"/><polygon class="cls-17" points="341.46 582.48 377.28 613.82 408.62 598.15 375.04 563.07 341.46 582.48"/><polygon class="cls-18" points="717.27 421.2 753.09 452.55 784.43 436.88 750.85 401.8 717.27 421.2"/><polygon class="cls-19" points="717.27 370.46 753.09 401.8 784.43 386.13 750.85 351.06 717.27 370.46"/><polygon class="cls-20" points="724.43 467.85 760.25 499.2 791.6 483.52 758.01 448.45 724.43 467.85"/><polygon class="cls-21" points="783.76 431.19 819.58 462.53 850.92 446.86 817.34 411.79 783.76 431.19"/><polygon class="cls-22" points="415.13 643.67 450.95 675.01 482.29 659.34 448.71 624.27 415.13 643.67"/><polygon class="cls-23" points="532.27 527.17 563.12 510.54 596.7 537.62 681.32 497.17 717.27 527.17 605.03 588.45 532.27 527.17"/><path class="cls-24" d="M880,1258.74l2.46-39.41c132.21,111.59,231.46,191.06,256.11,206.16,4.88,3,16.08,9.67,31.34,10.45,16.26.83,29.6-5.37,37.63-10.12l402.66-234.65q3.74,59.7,7.46,119.4a46.43,46.43,0,0,1-26.86,40.3l-419.39,244.76a74.8,74.8,0,0,1-45.27,8.79c-19.06-2.42-33.47-12.57-42.46-20.56L884.82,1437.43v-31.34l216.41,150.74a16,16,0,0,0,12.94,3.15c7.64-1.64,10.67-8.49,10.94-9.12,1.47-23.47,8-52.62,3.66-75.81-3.32-17.69-19-28.33-43.63-50.77s-34.72-27.87-69.71-55.53c-28.64-22.65-29.35-24.93-68.14-56.65C919.29,1289.21,895.87,1271,880,1258.74Z" transform="translate(-722.14 -734.87)"/><path class="cls-25" d="M877.67,1315.77q-1.14-15.88-2.27-31.76l238.88,191.2q-.54,12.33-1.07,24.66Z" transform="translate(-722.14 -734.87)"/><path class="cls-26" d="M878.4,1370.16q-.39-14.91-.79-29.84l229,180.2q-.87,10.32-1.73,20.64Z" transform="translate(-722.14 -734.87)"/><polygon class="cls-27" points="418.56 553.78 481.49 613.69 510.54 593.08 448.77 533.17 418.56 553.78"/><polygon class="cls-28" points="375.67 375.45 436.14 437.85 465.99 418.43 406.69 356.08 375.67 375.45"/><polygon class="cls-29" points="522.74 589.94 558.56 621.28 589.9 605.61 556.32 570.54 522.74 589.94"/><polygon class="cls-30" points="274.78 530.84 310.6 562.18 341.94 546.51 308.36 511.43 274.78 530.84"/><polygon class="cls-31" points="220.89 474.74 256.71 506.08 288.05 490.41 254.47 455.34 220.89 474.74"/><polygon class="cls-32" points="544.87 459.76 580.69 491.1 612.03 475.43 578.45 440.36 544.87 459.76"/><polygon class="cls-33" points="634.65 451.02 670.47 482.36 701.81 466.69 668.23 431.62 634.65 451.02"/></svg>