<svg id="Layer_1" data-name="Layer 1" xmlns="http://www.w3.org/2000/svg" xmlns:xlink="http://www.w3.org/1999/xlink" viewBox="0 0 2198.43 750.87"><defs><style>.cls-1{font-size:249.21px;fill:#fff;font-family:Airstrike;}.cls-2{letter-spacing:-0.14em;}.cls-3{fill:url(#linear-gradient);}.cls-4{fill:url(#linear-gradient-2);}.cls-5{fill:url(#linear-gradient-3);}.cls-6{fill:url(#linear-gradient-4);}.cls-7{fill:url(#linear-gradient-5);}.cls-8{fill:url(#linear-gradient-6);}.cls-9{fill:url(#linear-gradient-7);}.cls-10{fill:url(#linear-gradient-8);}.cls-11{fill:url(#linear-gradient-9);}.cls-12{fill:url(#linear-gradient-10);}.cls-13{fill:url(#linear-gradient-11);}.cls-14{fill:url(#linear-gradient-12);}.cls-15{fill:url(#linear-gradient-13);}.cls-16{fill:url(#linear-gradient-14);}.cls-17{fill:url(#linear-gradient-15);}.cls-18{fill:url(#linear-gradient-16);}.cls-19{fill:url(#linear-gradient-17);}.cls-20{fill:url(#linear-gradient-18);}.cls-21{fill:url(#linear-gradient-19);}.cls-22{fill:url(#linear-gradient-20);}.cls-23{fill:url(#linear-gradient-21);}.cls-24{fill:url(#linear-gradient-22);}.cls-25{fill:url(#linear-gradient-23);}.cls-26{fill:url(#linear-gradient-24);}.cls-27{fill:url(#linear-gradient-25);}.cls-28{fill:url(#linear-gradient-26);}.cls-29{fill:url(#linear-gradient-27);}.cls-30{fill:url(#linear-gradient-28);}.cls-31{fill:url(#linear-gradient-29);}.cls-32{fill:url(#linear-gradient-30);}.cls-33{fill:url(#linear-gradient-31);}.cls-34{fill:url(#linear-gradient-32);}.cls-35{fill:url(#linear-gradient-33);}</style><linearGradient id="linear-gradient" x1="295.45" y1="82.47" x2="362.61" y2="82.47" gradientUnits="userSpaceOnUse"><stop offset="0" stop-color="lime"/><stop offset="0" stop-color="#00ff0e"/><stop offset="0" stop-color="lime"/><stop offset="0.61" stop-color="aqua"/></linearGradient><linearGradient id="linear-gradient-2" x1="376.28" y1="265.55" x2="443.44" y2="265.55" xlink:href="#linear-gradient"/><linearGradient id="linear-gradient-3" x1="409.86" y1="200.55" x2="477.02" y2="200.55" xlink:href="#linear-gradient"/><linearGradient id="linear-gradient-4" x1="409.86" y1="145.46" x2="477.02" y2="145.46" xlink:href="#linear-gradient"/><linearGradient id="linear-gradient-5" x1="111.49" y1="257.18" x2="178.65" y2="257.18" xlink:href="#linear-gradient"/><linearGradient id="linear-gradient-6" x1="302.32" y1="206.43" x2="369.48" y2="206.43" xlink:href="#linear-gradient"/><linearGradient id="linear-gradient-7" x1="168.2" y1="175.17" x2="235.36" y2="175.17" xlink:href="#linear-gradient"/><linearGradient id="linear-gradient-8" x1="87.94" y1="82.47" x2="155.1" y2="82.47" xlink:href="#linear-gradient"/><linearGradient id="linear-gradient-9" x1="302.32" y1="354.57" x2="369.48" y2="354.57" xlink:href="#linear-gradient"/><linearGradient id="linear-gradient-10" x1="188.2" y1="365.91" x2="255.36" y2="365.91" xlink:href="#linear-gradient"/><linearGradient id="linear-gradient-11" x1="111.49" y1="307.92" x2="178.65" y2="307.92" xlink:href="#linear-gradient"/><linearGradient id="linear-gradient-12" x1="451.78" y1="272.19" x2="518.94" y2="272.19" xlink:href="#linear-gradient"/><linearGradient id="linear-gradient-13" x1="302.32" y1="257.18" x2="369.48" y2="257.18" xlink:href="#linear-gradient"/><linearGradient id="linear-gradient-14" x1="485.36" y1="200.55" x2="552.52" y2="200.55" xlink:href="#linear-gradient"/><linearGradient id="linear-gradient-15" x1="564.01" y1="107.84" x2="631.17" y2="107.84" xlink:href="#linear-gradient"/><linearGradient id="linear-gradient-16" x1="437.93" y1="25.37" x2="505.09" y2="25.37" xlink:href="#linear-gradient"/><linearGradient id="linear-gradient-17" x1="188.2" y1="469.19" x2="255.36" y2="469.19" xlink:href="#linear-gradient"/><linearGradient id="linear-gradient-18" x1="564.01" y1="307.92" x2="631.17" y2="307.92" xlink:href="#linear-gradient"/><linearGradient id="linear-gradient-19" x1="564.01" y1="257.18" x2="631.17" y2="257.18" xlink:href="#linear-gradient"/><linearGradient id="linear-gradient-20" x1="571.17" y1="354.57" x2="638.34" y2="354.57" xlink:href="#linear-gradient"/><linearGradient id="linear-gradient-21" x1="630.5" y1="317.91" x2="697.66" y2="317.91" xlink:href="#linear-gradient"/><linearGradient id="linear-gradient-22" x1="261.87" y1="530.39" x2="329.03" y2="530.39" xlink:href="#linear-gradient"/><linearGradient id="linear-gradient-23" x1="379.01" y1="423.56" x2="564.01" y2="423.56" xlink:href="#linear-gradient"/><linearGradient id="linear-gradient-24" x1="149.52" y1="1432.84" x2="887.19" y2="1432.84" xlink:href="#linear-gradient"/><linearGradient id="linear-gradient-25" x1="144.95" y1="1426.7" x2="383.84" y2="1426.7" xlink:href="#linear-gradient"/><linearGradient id="linear-gradient-26" x1="147.17" y1="1475.5" x2="376.21" y2="1475.5" xlink:href="#linear-gradient"/><linearGradient id="linear-gradient-27" x1="265.3" y1="454.18" x2="357.28" y2="454.18" xlink:href="#linear-gradient"/><linearGradient id="linear-gradient-28" x1="222.41" y1="277.71" x2="312.73" y2="277.71" xlink:href="#linear-gradient"/><linearGradient id="linear-gradient-29" x1="369.48" y1="476.66" x2="436.64" y2="476.66" xlink:href="#linear-gradient"/><linearGradient id="linear-gradient-30" x1="121.52" y1="417.55" x2="188.68" y2="417.55" xlink:href="#linear-gradient"/><linearGradient id="linear-gradient-31" x1="67.63" y1="361.46" x2="134.79" y2="361.46" xlink:href="#linear-gradient"/><linearGradient id="linear-gradient-32" x1="391.61" y1="346.48" x2="458.77" y2="346.48" xlink:href="#linear-gradient"/><linearGradient id="linear-gradient-33" x1="481.39" y1="337.74" x2="548.55" y2="337.74" xlink:href="#linear-gradient"/></defs><title>Atheneum Logo Vector</title><text class="cls-1" transform="translate(836.01 502.03)"><tspan class="cls-2">A</tspan><tspan x="152.02" y="0">theneum</tspan></text><polygon class="cls-3" points="295.45 76.5 331.27 107.84 362.61 92.17 329.03 57.1 295.45 76.5"/><polygon class="cls-4" points="376.28 259.58 412.1 290.92 443.44 275.25 409.86 240.17 376.28 259.58"/><polygon class="cls-5" points="409.86 194.58 445.68 225.92 477.02 210.25 443.44 175.17 409.86 194.58"/><polygon class="cls-6" points="409.86 139.49 445.68 170.83 477.02 155.16 443.44 120.09 409.86 139.49"/><polygon class="cls-7" points="111.49 251.21 147.31 282.55 178.65 266.88 145.07 231.81 111.49 251.21"/><polygon class="cls-8" points="302.32 200.46 338.14 231.81 369.48 216.13 335.9 181.06 302.32 200.46"/><polygon class="cls-9" points="168.2 169.2 204.02 200.55 235.36 184.88 201.78 149.8 168.2 169.2"/><polygon class="cls-10" points="87.94 76.5 123.76 107.84 155.1 92.17 121.52 57.1 87.94 76.5"/><polygon class="cls-11" points="302.32 348.6 338.14 379.94 369.48 364.27 335.9 329.2 302.32 348.6"/><polygon class="cls-12" points="188.2 359.94 224.02 391.29 255.36 375.62 221.78 340.54 188.2 359.94"/><polygon class="cls-13" points="111.49 301.95 147.31 333.29 178.65 317.62 145.07 282.55 111.49 301.95"/><polygon class="cls-14" points="451.77 266.21 487.6 297.56 518.94 281.89 485.36 246.81 451.77 266.21"/><polygon class="cls-15" points="302.32 251.21 338.14 282.55 369.48 266.88 335.9 231.81 302.32 251.21"/><polygon class="cls-16" points="485.36 194.58 521.18 225.92 552.52 210.25 518.94 175.17 485.36 194.58"/><polygon class="cls-17" points="564.01 101.88 599.83 133.22 631.17 117.55 597.59 82.47 564.01 101.88"/><polygon class="cls-18" points="437.93 19.4 473.75 50.74 505.09 35.07 471.51 0 437.93 19.4"/><polygon class="cls-19" points="188.2 463.22 224.02 494.57 255.36 478.89 221.78 443.82 188.2 463.22"/><polygon class="cls-20" points="564.01 301.95 599.83 333.29 631.17 317.62 597.59 282.55 564.01 301.95"/><polygon class="cls-21" points="564.01 251.21 599.83 282.55 631.17 266.88 597.59 231.81 564.01 251.21"/><polygon class="cls-22" points="571.17 348.6 606.99 379.94 638.34 364.27 604.75 329.2 571.17 348.6"/><polygon class="cls-23" points="630.5 311.94 666.32 343.28 697.66 327.61 664.08 292.54 630.5 311.94"/><polygon class="cls-24" points="261.87 524.42 297.69 555.76 329.03 540.09 295.45 505.01 261.87 524.42"/><polygon class="cls-25" points="379.01 407.92 409.86 391.29 443.44 418.36 528.07 377.92 564.01 407.92 451.77 469.19 379.01 407.92"/><path class="cls-26" d="M149.52,1293.5l2.47-39.41c132.21,111.59,231.46,191.06,256.11,206.16,4.88,3,16.08,9.67,31.34,10.45,16.26.83,29.6-5.37,37.63-10.12l402.66-234.65q3.74,59.7,7.46,119.4a46.45,46.45,0,0,1-26.86,40.3L440.94,1630.39a74.84,74.84,0,0,1-45.28,8.79c-19.05-2.42-33.46-12.57-42.45-20.56L154.38,1472.19v-31.34l216.41,150.74a15.93,15.93,0,0,0,12.93,3.15c7.65-1.64,10.68-8.49,10.95-9.12,1.47-23.47,8-52.62,3.66-75.81-3.32-17.69-19-28.33-43.64-50.77S320,1431.18,285,1403.51c-28.64-22.65-29.35-24.93-68.14-56.65C188.84,1324,165.43,1305.71,149.52,1293.5Z" transform="translate(-144.95 -888.89)"/><path class="cls-27" d="M147.23,1350.53,145,1318.77,383.84,1510q-.54,12.33-1.07,24.66Z" transform="translate(-144.95 -888.89)"/><path class="cls-28" d="M148,1404.92q-.39-14.91-.79-29.84l229,180.2q-.87,10.32-1.73,20.64Z" transform="translate(-144.95 -888.89)"/><polygon class="cls-29" points="265.3 434.53 328.23 494.44 357.28 473.83 295.51 413.92 265.3 434.53"/><polygon class="cls-30" points="222.41 256.2 282.88 318.6 312.74 299.17 253.43 236.83 222.41 256.2"/><polygon class="cls-31" points="369.48 470.69 405.3 502.03 436.64 486.36 403.06 451.28 369.48 470.69"/><polygon class="cls-32" points="121.52 411.58 157.34 442.93 188.68 427.25 155.1 392.18 121.52 411.58"/><polygon class="cls-33" points="67.63 355.49 103.45 386.83 134.79 371.16 101.21 336.08 67.63 355.49"/><polygon class="cls-34" points="391.61 340.51 427.43 371.85 458.77 356.18 425.19 321.11 391.61 340.51"/><polygon class="cls-35" points="481.39 331.77 517.21 363.11 548.55 347.44 514.97 312.37 481.39 331.77"/></svg>